<svg xmlns="http://www.w3.org/2000/svg" viewBox="0 0 200 200" role="img" aria-label="Benny the bear looking excited">
  <style>
    .bob   { animation: a-bob 3.2s ease-in-out infinite; transform-box: fill-box; transform-origin: center bottom; }
    .eye   { animation: a-blink 4.6s infinite; transform-box: fill-box; transform-origin: center; }
    .tail  { animation: a-wag 1.5s ease-in-out infinite; }
    .footL { animation: a-step 1.1s ease-in-out infinite; transform-box: fill-box; transform-origin: center bottom; }
    .footR { animation: a-step 1.1s ease-in-out infinite .55s; transform-box: fill-box; transform-origin: center bottom; }
    .ear   { animation: a-ear 3.6s ease-in-out infinite; }
    .spark { animation: a-twinkle 1.4s ease-in-out infinite; transform-box: fill-box; transform-origin: center; }
    .tear  { animation: a-drop 2.8s ease-in infinite; transform-box: fill-box; transform-origin: center; }

    @keyframes a-bob  { 0%,100% { transform: translateY(0); } 50% { transform: translateY(-3px); } }
    @keyframes a-blink{ 0%,93%,100% { transform: scaleY(1); } 96.5% { transform: scaleY(0.08); } }
    @keyframes a-wag  { 0%,100% { transform: rotate(-11deg); } 50% { transform: rotate(11deg); } }
    @keyframes a-step { 0%,100% { transform: translateY(0); } 30% { transform: translateY(-6px) rotate(-4deg); } }
    @keyframes a-ear  { 0%,100% { transform: rotate(0deg); } 50% { transform: rotate(-5deg); } }
    @keyframes a-twinkle { 0%,100% { opacity: .25; transform: scale(.6); } 50% { opacity: 1; transform: scale(1.1); } }
    @keyframes a-drop { 0% { transform: translateY(0); opacity: 0; } 15% { opacity: 1; } 100% { transform: translateY(16px); opacity: 0; } }

    @media (prefers-reduced-motion: reduce) {
      .bob,.eye,.tail,.footL,.footR,.ear,.spark,.tear { animation: none !important; }
    }
  </style>
  <ellipse cx="100" cy="188" rx="56" ry="9" fill="#000" opacity="0.12"/>
  
    <g class="tail" style="transform-box:view-box;transform-origin:132px 158px"><ellipse cx="134" cy="158" rx="8" ry="8" fill="#9b6b3f" /></g>
    <g class="footL"><ellipse cx="84" cy="176" rx="12" ry="13" fill="#9b6b3f" /><ellipse cx="84" cy="182" rx="8" ry="5" fill="#e3c79e" /></g>
    <g class="footR"><ellipse cx="116" cy="176" rx="12" ry="13" fill="#9b6b3f" /><ellipse cx="116" cy="182" rx="8" ry="5" fill="#e3c79e" /></g>
    <g class="bob">
      <ellipse cx="100" cy="142" rx="40" ry="38" fill="#9b6b3f" />
      <ellipse cx="100" cy="150" rx="26" ry="24" fill="#cda274" />
      <ellipse cx="100" cy="78" rx="33" ry="31" fill="#9b6b3f" />
      <g class="ear" style="transform-box:view-box;transform-origin:74px 56px"><circle cx="74" cy="56" r="12" fill="#9b6b3f" /><circle cx="74" cy="56" r="6" fill="#7c5330" /></g>
      <g class="ear" style="transform-box:view-box;transform-origin:126px 56px;animation-delay:.6s"><circle cx="126" cy="56" r="12" fill="#9b6b3f" /><circle cx="126" cy="56" r="6" fill="#7c5330" /></g>
      <ellipse cx="100" cy="90" rx="18" ry="15" fill="#e3c79e" />
      <ellipse cx="100" cy="84" rx="6" ry="4.5" fill="#2b2b2b" />
      <g class="eye"><circle cx="88" cy="74" r="8.05" fill="#3a2a1e" /><circle cx="90.58" cy="71.42" r="2.74" fill="#fff" /></g><g class="eye"><circle cx="112" cy="74" r="8.05" fill="#3a2a1e" /><circle cx="114.58" cy="71.42" r="2.74" fill="#fff" /></g><path d="M80 64 L92.9 62" stroke="#3a2a1e" stroke-width="3" stroke-linecap="round" fill="none" /><path d="M120 64 L107.1 62" stroke="#3a2a1e" stroke-width="3" stroke-linecap="round" fill="none" /><ellipse cx="85.2" cy="85" rx="5" ry="3.2" fill="#ff9aa8" opacity="0.8"/><ellipse cx="114.8" cy="85" rx="5" ry="3.2" fill="#ff9aa8" opacity="0.8"/><path d="M88 94 Q100 90 112 94 Q100 108 88 94 Z" fill="#7a2230" /><path d="M93.4 101 Q100 108 106.6 101 Z" fill="#ff7d93" /><g class="spark" style="animation-delay:0s"><path d="M71 55 L72.92 59.08 L77 61 L72.92 62.92 L71 67 L69.08 62.92 L65 61 L69.08 59.08 Z" fill="#ffd84d" /></g><g class="spark" style="animation-delay:0.5s"><path d="M131 67 L132.6 70.4 L136 72 L132.6 73.6 L131 77 L129.4 73.6 L126 72 L129.4 70.4 Z" fill="#ffd84d" /></g><g class="spark" style="animation-delay:0.9s"><path d="M100 40 L101.6 43.4 L105 45 L101.6 46.6 L100 50 L98.4 46.6 L95 45 L98.4 43.4 Z" fill="#ffd84d" /></g>
    </g>
</svg>
