<svg xmlns="http://www.w3.org/2000/svg" viewBox="0 0 200 200" role="img" aria-label="Penny the penguin looking happy">
  <style>
    .bob   { animation: a-bob 3.2s ease-in-out infinite; transform-box: fill-box; transform-origin: center bottom; }
    .eye   { animation: a-blink 4.6s infinite; transform-box: fill-box; transform-origin: center; }
    .tail  { animation: a-wag 1.5s ease-in-out infinite; }
    .footL { animation: a-step 1.1s ease-in-out infinite; transform-box: fill-box; transform-origin: center bottom; }
    .footR { animation: a-step 1.1s ease-in-out infinite .55s; transform-box: fill-box; transform-origin: center bottom; }
    .ear   { animation: a-ear 3.6s ease-in-out infinite; }
    .spark { animation: a-twinkle 1.4s ease-in-out infinite; transform-box: fill-box; transform-origin: center; }
    .tear  { animation: a-drop 2.8s ease-in infinite; transform-box: fill-box; transform-origin: center; }

    @keyframes a-bob  { 0%,100% { transform: translateY(0); } 50% { transform: translateY(-3px); } }
    @keyframes a-blink{ 0%,93%,100% { transform: scaleY(1); } 96.5% { transform: scaleY(0.08); } }
    @keyframes a-wag  { 0%,100% { transform: rotate(-11deg); } 50% { transform: rotate(11deg); } }
    @keyframes a-step { 0%,100% { transform: translateY(0); } 30% { transform: translateY(-6px) rotate(-4deg); } }
    @keyframes a-ear  { 0%,100% { transform: rotate(0deg); } 50% { transform: rotate(-5deg); } }
    @keyframes a-twinkle { 0%,100% { opacity: .25; transform: scale(.6); } 50% { opacity: 1; transform: scale(1.1); } }
    @keyframes a-drop { 0% { transform: translateY(0); opacity: 0; } 15% { opacity: 1; } 100% { transform: translateY(16px); opacity: 0; } }

    @media (prefers-reduced-motion: reduce) {
      .bob,.eye,.tail,.footL,.footR,.ear,.spark,.tear { animation: none !important; }
    }
  </style>
  <ellipse cx="100" cy="188" rx="56" ry="9" fill="#000" opacity="0.12"/>
  
    <g class="footL"><path d="M84 180 q-8 6 -2 8 l14 0 q4 -2 -2 -8 Z" fill="#f6a623" /></g>
    <g class="footR"><path d="M116 180 q8 6 2 8 l-14 0 q-4 -2 2 -8 Z" fill="#f6a623" /></g>
    <g class="bob">
      <ellipse cx="100" cy="120" rx="40" ry="56" fill="#2f3d4f" />
      <ellipse cx="100" cy="128" rx="26" ry="44" fill="#f7fbff" />
      <!-- flippers double as the "wag" -->
      <g class="tail" style="transform-box:view-box;transform-origin:64px 110px"><ellipse cx="60" cy="124" rx="9" ry="26" fill="#2f3d4f" /></g>
      <ellipse cx="140" cy="124" rx="9" ry="26" fill="#2f3d4f" />
      <ellipse cx="100" cy="72" rx="28" ry="28" fill="#2f3d4f" />
      <path d="M82 78 Q100 64 118 78 Q100 92 82 78 Z" fill="#f7fbff" />
      <path d="M92 84 L108 84 L100 96 Z" fill="#f6a623" />
      <g class="eye"><circle cx="89" cy="70" r="6.5" fill="#3a2a1e" /><circle cx="91.08" cy="67.92" r="2.21" fill="#fff" /></g><g class="eye"><circle cx="111" cy="70" r="6.5" fill="#3a2a1e" /><circle cx="113.08" cy="67.92" r="2.21" fill="#fff" /></g><ellipse cx="86.4" cy="80.5" rx="5" ry="3.2" fill="#ff9aa8" opacity="0.8"/><ellipse cx="113.6" cy="80.5" rx="5" ry="3.2" fill="#ff9aa8" opacity="0.8"/><path d="M100 90 Q100 90 100 90" stroke="#3a2a1e" stroke-width="3.2" fill="none" stroke-linecap="round"/>
    </g>
</svg>
